<svg width="48" height="48" viewBox="0 0 48 48" fill="none" xmlns="http://www.w3.org/2000/svg">
  <path d="M36 8H12C9.79 8 8 9.79 8 12V36C8 38.21 9.79 40 12 40H36C38.21 40 40 38.21 40 36V12C40 9.79 38.21 8 36 8ZM36 36H12V12H36V36Z" fill="#A855F7" fill-opacity="0.4"/>
  <path d="M24 20C25.1046 20 26 19.1046 26 18C26 16.8954 25.1046 16 24 16C22.8954 16 22 16.8954 22 18C22 19.1046 22.8954 20 24 20Z" fill="#A855F7"/>
  <path d="M24 22C20.13 22 17 25.13 17 29H19C19 26.24 21.24 24 24 24C26.76 24 29 26.24 29 29H31C31 25.13 27.87 22 24 22Z" fill="#A855F7"/>
</svg> 